<svg width="64" height="64" viewBox="0 0 64 64" xmlns="http://www.w3.org/2000/svg">
  <defs>
    <linearGradient id="grenadeBody" x1="20" y1="12" x2="48" y2="56" gradientUnits="userSpaceOnUse">
      <stop offset="0" stop-color="#5ad673" />
      <stop offset="1" stop-color="#147a3a" />
    </linearGradient>
    <linearGradient id="grenadeHighlight" x1="24" y1="18" x2="38" y2="42" gradientUnits="userSpaceOnUse">
      <stop offset="0" stop-color="#b9f5c6" />
      <stop offset="1" stop-color="#4ac267" />
    </linearGradient>
  </defs>
  <rect x="22" y="6" width="20" height="10" rx="4" fill="#39494d" />
  <path d="M28 6h8v-2c0-1.1-.9-2-2-2h-4c-1.1 0-2 .9-2 2v2z" fill="#8aa2ab" />
  <path d="M32 14c-9.9 0-18 8.1-18 18s8.1 20 18 20 18-10.1 18-20-8.1-18-18-18z" fill="url(#grenadeBody)" stroke="#0b4823" stroke-width="4" />
  <path d="M24 20h16v6H24z" fill="#1f512c" />
  <path d="M32 20c6 0 11 5 11 11s-5 13-11 13-11-7-11-13 5-11 11-11z" fill="url(#grenadeHighlight)" />
  <path d="M24 28h16" stroke="#0b4823" stroke-width="3" stroke-linecap="round" />
  <path d="M24 36h16" stroke="#0b4823" stroke-width="3" stroke-linecap="round" />
  <path d="M32 46c6.6 0 12-3.4 12-8" stroke="#0b4823" stroke-width="3" stroke-linecap="round" />
</svg>
