<svg width="64" height="64" viewBox="0 0 64 64" xmlns="http://www.w3.org/2000/svg">
  <defs>
    <linearGradient id="shovelHandle" x1="20" y1="6" x2="32" y2="36" gradientUnits="userSpaceOnUse">
      <stop offset="0" stop-color="#f0b37b" />
      <stop offset="1" stop-color="#b96a2c" />
    </linearGradient>
    <linearGradient id="shovelBlade" x1="22" y1="30" x2="48" y2="58" gradientUnits="userSpaceOnUse">
      <stop offset="0" stop-color="#ffffff" />
      <stop offset="1" stop-color="#c0c8d8" />
    </linearGradient>
  </defs>
  <rect x="26" y="6" width="12" height="20" rx="6" fill="url(#shovelHandle)" stroke="#7c431c" stroke-width="3" />
  <path d="M22 6h20v10c0 2.2-1.8 4-4 4H26c-2.2 0-4-1.8-4-4V6z" fill="#333" stroke="#1b1b1b" stroke-width="3" />
  <path d="M20 30h24l4 18c1 4.4-2.2 8-6.6 8H22.6C18.2 56 15 52.4 16 48l4-18z" fill="url(#shovelBlade)" stroke="#4a5568" stroke-width="3" />
  <path d="M24 36h16l2.5 12c0.5 2.4-1 4.6-3.5 4.6h-14c-2.5 0-4-2.2-3.5-4.6L24 36z" fill="#e7ecf4" />
</svg>
