<svg width="64" height="64" viewBox="0 0 64 64" xmlns="http://www.w3.org/2000/svg">
  <defs>
    <linearGradient id="timerBody" x1="20" y1="10" x2="44" y2="54" gradientUnits="userSpaceOnUse">
      <stop offset="0" stop-color="#f4f4f4" />
      <stop offset="1" stop-color="#c7d3ff" />
    </linearGradient>
    <linearGradient id="timerSand" x1="24" y1="18" x2="40" y2="46" gradientUnits="userSpaceOnUse">
      <stop offset="0" stop-color="#ffd37b" />
      <stop offset="1" stop-color="#f28c18" />
    </linearGradient>
  </defs>
  <rect x="18" y="8" width="28" height="6" rx="3" fill="#3f4a6b" />
  <rect x="14" y="6" width="36" height="6" rx="3" fill="#202842" />
  <path d="M16 14h32v6l-10 12 10 12v6H16v-6l10-12-10-12v-6z" fill="url(#timerBody)" stroke="#202842" stroke-width="3" stroke-linejoin="round" />
  <path d="M24 22h16l-5.2 6.4c-1.7 2.1-4.9 2.1-6.6 0L24 22z" fill="#e9edf9" />
  <path d="M40 42H24l5.2-6.4c1.7-2.1 4.9-2.1 6.6 0L40 42z" fill="url(#timerSand)" />
  <circle cx="32" cy="18" r="2" fill="#202842" />
  <circle cx="32" cy="46" r="2" fill="#202842" />
</svg>
